<?xml version="1.0" encoding="utf-8"?>
<!-- Generator: Adobe Illustrator 20.0.0, SVG Export Plug-In . SVG Version: 6.00 Build 0)  -->
<svg version="1.1" id="Layer_1" xmlns="http://www.w3.org/2000/svg" xmlns:xlink="http://www.w3.org/1999/xlink" x="0px" y="0px"
	 viewBox="0 0 5967.5 1219" style="enable-background:new 0 0 5967.5 1219;" xml:space="preserve">
<style type="text/css">
	.st0{fill:#818181;}
	.st1{fill:#040505;}
	.st2{fill:#050606;}
	.st3{fill:#030404;}
	.st4{fill:#0F0E0C;}
	.st5{fill:#EFDF54;}
	.st6{fill:#FDFCEA;}
	.st7{fill:#EBDB54;}
	.st8{fill:#CECDC0;}
</style>
<g>
	<g>
		<g>
			<path class="st0" d="M5496.3,279.7c0.7-0.1,1.4-0.1,2.2-0.2c0,111.3,0,222.7,0,334c-0.7,0-1.3,0-2,0c0-75.3,0-150.6,0-225.9
				C5496.5,351.7,5496.4,315.7,5496.3,279.7z"/>
			<path class="st1" d="M4655.6,492.2c17-51.4,33.9-102.6,50.8-153.8c5.8-17.7,11.8-35.3,17.5-53.1c1.1-3.3,1.8-6.1,6.3-6.1
				c21,0.2,41.9,0.1,63.5,0.1c-1.5,9.2-4.9,17.1-7.5,25.2c-32.3,99.7-64.8,199.3-97.2,298.9c-0.7,2.2-1.7,4.4-2.1,6.6
				c-0.6,3.4-2.7,4.1-5.7,4.1c-16-0.1-32-0.2-48,0.1c-5.2,0.1-5.7-3.3-6.8-6.8c-7.9-26.5-15.8-52.9-23.7-79.4
				c-10.8-36.3-21.6-72.7-32.4-109.1c-0.8-2.5-1.7-5-2.6-7.6c-3.9,2.4-3.6,6.5-4.6,9.9c-18.3,60.8-36.5,121.7-54.7,182.6
				c-0.4,1.3-1,2.5-1.2,3.8c-0.6,5.4-3.7,6.8-8.8,6.7c-14-0.3-28-0.1-42-0.1c-8.2,0-8.3,0-10.9-8c-19-58.2-37.9-116.4-56.8-174.6
				c-15.2-46.8-30.5-93.6-45.6-140.5c-1.1-3.4-3.1-6.7-2.6-10.6c2.3-2,5.1-1,7.6-1c17.7-0.1,35.3,0.3,53-0.2
				c5.9-0.2,7.9,2.1,9.6,7.3c21.1,65.2,42.5,130.3,63.8,195.4c1.1,3.4,2.4,6.6,5.3,9.8c5.6-19.6,11.1-39.3,16.7-58.9
				c13.7-48.3,27.3-96.7,41-145c2.4-8.4,2.4-8.4,11.4-8.4c12,0,24,0,36,0c8.9,0,9,0,11.3,8.5c12.8,45.5,25.6,90.9,38.4,136.4
				c5.9,20.8,11.8,41.6,17.7,62.4C4652.7,488.4,4652.3,490.7,4655.6,492.2z"/>
			<path class="st1" d="M5496.3,279.7c0.1,36,0.1,72,0.2,108c0,75.3,0,150.6,0,225.9c-19.3,1.3-38.6,0.2-57.9,0.6
				c-3,0.1-5.1-0.9-6.5-3.6c-0.9-1.8-2.2-3.3-3.2-5c-45.9-71.4-91.9-142.8-137.9-214.2c-1.7-2.6-3-5.7-7.1-8.9c0,5,0,8.5,0,11.9
				c0,69.6,0,139.3,0,208.9c0,11.4,1.6,10.9-10.6,10.9c-15.7,0-31.3-0.2-47,0.1c-4.7,0.1-6.9-1.1-6.2-6.1c0.2-1.6,0-3.3,0-5
				c0-104.3,0-208.6,0-312.9c0-12.8-1.6-10.8,11.2-10.9c17.7-0.1,35.3,0.3,53-0.2c6.6-0.2,10.1,2.1,13.6,7.4
				c42.8,66.3,85.8,132.5,128.8,198.6c1.9,3,3.4,6.4,7.8,9.8c0-4.2,0-7.3,0-10.4c0-64.3,0-128.6,0-192.9c0-2,0.2-4,0-6
				c-0.5-4.5,0.8-6.6,5.9-6.5C5459,279.6,5477.7,279.6,5496.3,279.7z"/>
			<path class="st1" d="M4137.5,620.4c-51.3-2-103-28.4-138.2-83.4c-42.6-66.6-32.1-155,24-211.3c70.1-70.5,187.3-70.1,256,0.8
				c78.7,81.2,60.7,211.9-37,269.2C4214,612.2,4183.6,620.6,4137.5,620.4z M4151.2,335c-61.6-0.1-112.4,50.1-112.8,111.2
				c-0.3,61.3,51.1,112.9,112.6,112.7c61.3-0.1,111.5-50.8,112.1-112.1C4263.8,385.7,4211,334.3,4151.2,335z"/>
			<path class="st2" d="M3209.1,446.7c0-51.6,0-103.3,0-154.9c0-2.7,0-5.3,0-8c0-2.9,1.5-4.2,4.3-4.1c2,0.1,4,0,6,0
				c67,0,133.9,0,200.9,0c2,0,4,0.1,6,0c3-0.1,4,1.5,4,4.3c0,15-0.1,30,0,45c0,3.5-1.5,4.7-4.8,4.6c-2.3-0.1-4.7,0-7,0
				c-44.3,0-88.6,0-132.9,0c-1.7,0-3.3,0-5,0c-7.6,0.1-7.7,0.1-7.8,7.6c-0.1,17.3-0.2,34.7,0.1,52c0.1,6.5-3.1,14.8,1.6,19.1
				c4.1,3.8,12.1,1.1,18.4,1.1c42,0.1,84,0,125.9,0.1c10.8,0,9.4-0.7,9.5,9.8c0,12-0.3,24,0.1,36c0.2,5.4-1.8,6.7-6.9,6.7
				c-29.3-0.2-58.6-0.1-88-0.1c-17.7,0-35.3,0-53,0c-7.7,0-7.8,0.1-7.8,8.5c0,24.7,0,49.3,0,74c0,9.2,0.1,9.3,9,9.3
				c37.3,0,74.6,0,111.9,0c10,0,20,0.1,30-0.1c4.3-0.1,6.8,0.5,6.6,5.9c-0.3,15-0.2,30,0,45c0.1,4.2-1.1,6.3-5.6,5.9
				c-1.6-0.2-3.3,0-5,0c-66.6,0-133.3,0-199.9,0c-12.2,0-10.9,0.8-10.9-10.6C3209.1,551.3,3209.1,499,3209.1,446.7z"/>
			<path class="st3" d="M4829.9,447.5c0-52,0-104,0-156c0-2,0.2-4,0-6c-0.6-5.1,2-6.5,6.5-5.9c1.3,0.2,2.7,0,4,0
				c66.6,0,133.3,0,199.9,0c1,0,2,0,3,0c7.2,0.1,7.3,0.1,7.4,6.9c0.1,14,0.1,28,0,42c0,6.8-0.2,6.9-7.3,6.9c-46,0-92,0-138,0.1
				c-13.1,0-11.8-2.1-11.9,11.4c-0.1,18.7,0,37.3,0,56c0,11.8-0.4,10.4,10,10.4c44.3,0,88.6,0,133,0c2.3,0,4.7,0.2,7,0
				c3.8-0.3,5.3,1.2,5.2,5.1c-0.2,14.3-0.2,28.7,0,43c0,3.6-1.5,4.7-4.8,4.5c-3.3-0.2-6.7,0-10,0c-42.7,0-85.3-0.1-128,0
				c-14.1,0-12.4-2.2-12.5,12.9c-0.1,40.7,0,81.3,0,122c0,2,0,4,0,6c-0.2,7.1-0.2,7.3-7.1,7.3c-13.3,0.1-26.7,0-40,0
				c-4,0-8-0.2-12,0c-3.5,0.2-4.8-1.3-4.6-4.7c0.2-2.3,0-4.7,0-7C4829.9,550.8,4829.9,499.2,4829.9,447.5z"/>
			<path class="st1" d="M3173.6,279.7c-2.7,4.3-4.5,7.3-6.5,10.2c-41.4,60-82.8,120-124.4,179.9c-3.6,5.2-5.3,10.2-5.3,16.6
				c0.2,38.6,0.1,77.3,0.1,115.9c0,2-0.2,4,0,6c0.5,4.8-1.6,6.4-6.3,6.3c-13.3-0.2-26.7,0.1-40-0.2c-6.2-0.1-14.1,2.8-18.2-1.5
				c-3.6-3.9-1.1-11.5-1.1-17.4c-0.1-36.6-0.1-73.3,0.1-109.9c0-5.9-1.4-10.8-4.7-15.8c-39.4-59.7-78.7-119.5-118-179.4
				c-1.9-3-4.7-5.6-5.2-9.5c2.3-2.2,5.1-1.1,7.5-1.1c19-0.1,38,0.2,57-0.2c6.7-0.1,10.6,1.8,14.2,7.8
				c24.9,40.9,50.3,81.6,75.6,122.3c1.9,3,3.1,6.7,6.9,9.1c2-2.9,4-5.8,5.9-8.7c26.4-40.8,52.8-81.6,79-122.5
				c3.6-5.6,7.2-8.2,14.2-8c19.6,0.6,39.3,0.2,59,0.2C3166.3,279.7,3169.2,279.7,3173.6,279.7z"/>
			<path class="st3" d="M3480.3,446.5c0-51.7,0-103.3,0-155c0-2,0.1-4,0-6c-0.3-4.1,0.9-6,5.5-5.9c18.3,0.2,36.7,0.2,55,0
				c4.1,0,6.4,0.9,5.9,5.5c-0.2,2.3,0,4.7,0,7c0,82.7,0,165.3,0,248c0,12.7-1.4,11.2,11.1,11.2c45.7,0,91.3,0,137,0
				c2.3,0,4.7,0.1,7,0c3.1-0.2,5,0.6,4.9,4.3c-0.1,18-0.1,36,0,54c0,3.6-1.5,4.7-4.8,4.5c-2-0.1-4,0-6,0c-68.3,0-136.7,0-205,0
				c-0.7,0-1.3,0-2,0c-9.5,0-8.6,0.4-8.6-8.6C3480.3,552.5,3480.3,499.5,3480.3,446.5z"/>
			<path class="st3" d="M3744.3,446.8c0-52,0-104,0-156c0-2.3,0.1-4.7,0-7c-0.1-2.9,1.3-4.1,4.2-4.1c19.3,0.1,38.7,0,58,0
				c3,0,4.1,1.6,4,4.4c-0.1,2.7,0,5.3,0,8c0,82.7,0,165.3,0,248c0,12.8-1.5,11.3,11,11.3c45.7,0.1,91.3,0,137,0c2.3,0,4.7,0.2,7,0
				c3.8-0.3,5.3,1.1,5.2,5.1c-0.2,17.7-0.1,35.3,0,53c0,3.3-1,5-4.5,4.7c-2-0.1-4,0-6,0c-68.3,0-136.7,0-205,0c-2,0-4-0.2-6,0
				c-4.1,0.4-5.2-1.7-4.9-5.4c0.2-2,0-4,0-6C3744.3,550.8,3744.3,498.8,3744.3,446.8z"/>
			<path class="st3" d="M5157.5,447.5c0,51.7,0,103.3,0,155c0,2.3-0.1,4.7,0,7c0.2,3.5-1.4,4.7-4.7,4.6c-7.7-0.1-15.3,0-23,0
				c-10.3,0-20.7-0.3-31,0.1c-5.4,0.2-7.1-1.9-6.5-6.9c0.2-1.6,0-3.3,0-5c0-103.3,0-206.7,0-310c0-1,0-2,0-3c0-10.9-0.7-9.7,9.6-9.7
				c15.7,0,31.3,0,47,0c8.5,0,8.5,0.1,8.5,8.8C5157.5,341.5,5157.5,394.5,5157.5,447.5z"/>
		</g>
		<g>
			<path class="st1" d="M4713.3,814.7c-10.8,16-19,32.2-28.2,47.7c-9.1,15.4-17.9,30.9-27.7,47.8c-19-32.8-37.3-64.2-55.5-95.6
				c-0.7,0.2-1.4,0.3-2.1,0.5c0,2.5,0,5,0,7.4c0,37.3,0,74.6,0,111.9c0,2.7,0,5.3-0.2,8c-0.2,2.5-1.9,3.2-4.1,3.2
				c-2.3-0.1-3.8-1.1-3.9-3.5c-0.1-2.3-0.1-4.7-0.1-7c0-43.3,0-86.6,0-129.9c0-1-0.1-2,0-3c0.3-2.5-1-5.8,2.6-6.7
				c3.8-1,7.1-0.5,9.4,3.5c4,7.3,8.4,14.4,12.5,21.6c12.2,21,24.3,42.1,36.5,63.1c0.8,1.4,1.6,2.9,2.6,4.2c1.5,2,3.2,2.2,4.8,0.1
				c1-1.3,1.8-2.8,2.6-4.2c15.5-26.8,30.9-53.6,46.4-80.4c2.1-3.6,3.4-8.2,8.9-8.2c3.4,0,5.9,0.7,5.8,4.8c-0.1,2,0,4,0,6
				c0,43,0,85.9,0,128.9c0,2.7,0,5.3-0.3,8c-0.3,2.6-2.4,2.8-4.5,2.8c-1.8-0.1-3.2-0.9-3.4-2.9c-0.2-2.7-0.3-5.3-0.3-8
				c0-36.3,0-72.6,0-108.9C4715,822.6,4715.7,819.3,4713.3,814.7z"/>
			<path class="st1" d="M5073.5,923.7c0-3.2,0-6.3,0-9.5c0-35.6,0-71.3,0-106.9c0-2,0.1-4,0-6c-0.1-3.6,0.2-7,5-6.9
				c4.9,0.2,4.5,4,4.5,7.3c0,8,0,16,0,24c0,35.6,0,71.3,0,106.9c0,2,0.1,4,0,6c-0.1,2.5,0.8,5.8-2.6,6.8c-3.8,1.1-7.2,0.2-9.3-3.7
				c-2.6-4.7-5.4-9.2-8-13.8c-21.1-36.6-42.2-73.2-63.4-109.8c-0.6-1.1-1.5-2.1-2.6-3.6c-2.2,2.7-1.4,5.4-1.4,7.8
				c-0.1,37.3,0,74.6-0.1,111.9c0,2.7,0,5.3-0.2,8c-0.1,2.4-1.6,3.4-3.9,3.5c-2.3,0-3.9-0.7-4.1-3.2c-0.2-2-0.2-4-0.2-6
				c0-44.3-0.1-88.6,0.1-132.9c0-3.2-2.1-7.9,3.3-9.1c4.7-1.1,7.1,2.1,9.3,5.8c14.4,25.1,29,50.1,43.5,75.2
				c8.3,14.4,16.6,28.9,24.9,43.3c1.1,1.9,2.5,3.6,3.8,5.4C5072.5,924,5073,923.9,5073.5,923.7z"/>
			<path class="st1" d="M4487.3,923.9c0-3.2,0-6.4,0-9.6c0-36,0-71.9,0-107.9c0-2.7,0-5.3,0.1-8c0.1-2.9,1.7-4.2,4.5-4
				c2.4,0.1,3.7,1.4,3.8,3.7c0.1,2,0.1,4,0.1,6c0,44,0,87.9,0,131.9c0,1.3,0.1,2.7,0,4c-0.1,2.2,0.4,5-2.8,5.6
				c-3,0.5-5.9,0.5-7.8-2.7c-4.4-7.8-9.1-15.5-13.6-23.3c-19.3-33.4-38.7-66.8-58-100.2c-0.8-1.4-1.7-2.7-4.2-3.9c0,2.4,0,4.8,0,7.3
				c0,37.3,0,74.6,0,111.9c0,2.7,0,5.3-0.2,8c-0.2,2.5-2,3.2-4.2,3.2c-2.5,0.1-4.8-0.4-5-3.5c-0.2-2.3-0.2-4.7-0.2-7
				c0-43.3,0-86.6,0-129.9c0-1.7,0-3.3,0-5c0-2.4,0.2-4.9,3-5.7c3-0.9,6.1-0.9,8.1,2c1.7,2.4,3.2,5.1,4.7,7.7
				c22.2,38.3,44.3,76.7,66.5,115c1,1.7,2.1,3.3,3.1,5C4485.9,924.2,4486.6,924,4487.3,923.9z"/>
			<path class="st1" d="M3347.2,923.8c0-3.2,0-6.4,0-9.6c0-36.3,0-72.7,0-109c0-2.7,0-5.3,0.3-8c0.3-2.5,2.3-3,4.5-2.9
				c1.8,0.1,3.2,0.9,3.5,2.9c0.2,2,0.2,4,0.2,6c0,44.3,0.1,88.7-0.1,133c0,3.2,2.3,7.8-3,9.3c-5.5,1.6-7.6-2.7-9.8-6.4
				c-15.7-27.1-31.3-54.2-47-81.3c-7.8-13.6-15.6-27.1-23.5-40.7c-0.4-0.8-0.8-1.9-3-1.3c0,2.9,0,6.1,0,9.3c0,36.3,0,72.7,0,109
				c0,2.3-0.1,4.7,0,7c0,3.4-1.8,4.7-5,4.6c-2.8-0.1-4.4-1.4-4.4-4.2c0-2.3-0.1-4.7-0.1-7c0-43,0-86,0-129c0-1.7,0-3.3,0-5
				c0-2.8,0.3-5.4,3.7-6.1c3.2-0.6,6-0.2,7.8,2.9c4.4,7.5,8.8,14.9,13.1,22.4c18.6,32.3,37.2,64.7,55.9,97c1.5,2.6,3.2,5,4.8,7.5
				C3345.7,924.1,3346.4,924,3347.2,923.8z"/>
			<path class="st1" d="M3858,944.4c-7.2,3-11,0.6-14.3-4.6c-8.3-13.3-17.1-26.2-25.3-39.5c-3-4.9-6.4-7.2-12.1-6.6
				c-5.9,0.6-13.1-2.3-17.4,1.4c-4.6,3.9-1.5,11.3-1.8,17.2c-0.3,9.3-0.1,18.6-0.1,28c0,3.6-1.1,5.8-5.2,5.5c-2.2-0.2-4-0.8-4.2-3.3
				c-0.2-2.3-0.2-4.7-0.2-7c0-43.6,0-87.2,0-130.9c0-1.7,0.1-3.3,0-5c-0.2-3.8,1.5-5.6,5.3-5.5c12,0.4,23.9-0.8,35.9,0.8
				c21.9,3,39,20,42.4,40.7c3.8,23.4-8,44.5-29.7,54.5c-1.8,0.8-3.6,1.6-6.2,2.8C3836.1,910.3,3847,927.2,3858,944.4z M3787,843.5
				c0,6.3-0.3,12.6,0.1,18.9c0.4,6.8-3.1,15.5,1.9,20.1c4.8,4.4,13.4,1.3,20.3,1.5c5.6,0.2,11.3,0.3,16.7-1.8
				c16.7-6.4,26.5-21.7,25.9-40.8c-0.5-16.7-11.6-30.7-28.2-35.9c-9.8-3.1-19.8-1.3-29.7-1.9c-5.2-0.3-7.1,1.8-7,6.9
				C3787.2,821.6,3787,832.6,3787,843.5z"/>
			<path class="st1" d="M3091.6,870.4c0-22.3,0-44.7,0-67c0-8.8,0.3-9.2,8.8-9.2c20-0.1,40-0.1,60,0c2.2,0,4.9-0.6,6.4,1.7
				c1.2,1.8,1,3.9,0.2,5.8c-1,2.2-3.3,1.9-5.2,1.9c-15.3,0-30.7-0.1-46,0.1c-16.7,0.1-14.5-2.1-14.6,15.1c-0.1,13-0.1,26,0,39
				c0.1,7.7,0.2,7.9,7.8,7.9c17.3,0.1,34.7,0,52,0.1c2.2,0,4.7-0.6,6.2,2.1c1.7,3.1-0.1,7.2-3.7,7.3c-6.3,0.3-12.7,0.1-19,0.1
				c-12,0-24-0.1-36,0c-7,0.1-7.2,0.3-7.2,7.5c-0.1,15.7-0.1,31.3,0,47c0.1,7.4,0.2,7.5,8.2,7.5c15.7,0.1,31.3,0,47,0
				c2.3,0,4.7,0,7,0.1c2.8,0.1,4.2,1.4,4.1,4.4c-0.1,3.1-1.9,4-4.6,4c-9.3,0-18.7,0.1-28,0.1c-12,0-24,0.1-36,0
				c-7-0.1-7.3-0.3-7.3-7.4C3091.5,915.7,3091.6,893.1,3091.6,870.4z"/>
			<path class="st1" d="M4152,793c18.6,51.2,36.8,101.1,54.9,151.1c-8.3,2.4-8.6,2.5-11.2-4.5c-5-13.4-9.7-26.9-14.6-40.4
				c-3.7-10.3-3.8-10.3-14.9-10.3c-10,0-20,0-30,0c-11.2,0-11.2,0-14.9,10.3c-4.8,13.1-9.5,26.3-14.3,39.4c-0.7,1.9-1.2,4-2.3,5.5
				c-1.9,2.5-4.9,2.2-7.3,1.2c-2.5-1-1.3-3.3-0.7-5.1c1.9-5.3,3.9-10.6,5.8-15.9c14.9-40.9,29.9-81.9,44.8-122.8
				C4148.1,798.9,4148.7,796.3,4152,793z M4152.1,820.1c-0.7,0.1-1.4,0.1-2.2,0.2c-6.7,18.3-13.4,36.6-20,54.9
				c-1.1,3,0.7,4.3,3.6,4.3c12.9,0,25.8,0,40.2,0C4166.3,858.8,4159.2,839.4,4152.1,820.1z"/>
			<path class="st1" d="M3609.4,870.5c0-22.3-0.1-44.6,0-67c0-8.2,0.2-8.3,8.4-8.4c19.7-0.1,39.3,0,59,0c1.7,0,3.3,0,5,0.2
				c2.4,0.2,3.4,1.7,3.4,4c0,2.3-0.9,3.9-3.3,4.1c-2.3,0.2-4.7,0.2-7,0.2c-16.3,0-32.7-0.1-49,0.1c-7.5,0.1-8,0.5-8,8
				c-0.1,15.7-0.1,31.3,0,47c0.1,6.9,0.3,7.1,7.6,7.1c17.3,0.1,34.6,0,52,0.1c2.5,0,5.5-1,7.3,1.8c2.3,3.5-0.3,7.6-5.4,7.6
				c-15.7,0.1-31.3,0-47,0.1c-16.4,0.1-14.5-1.9-14.6,14.2c-0.1,13.3-0.1,26.7,0,40c0.1,7.4,0.5,7.8,8.1,7.9c16,0.1,32,0,48,0
				c1.3,0,2.7-0.1,4,0c3.1,0.3,7.3-1.1,7.2,4.3c-0.1,5.3-4.4,4-7.4,4.1c-20.3,0.1-40.6,0.1-61,0c-7.1,0-7.3-0.2-7.3-7.3
				C3609.3,915.8,3609.4,893.1,3609.4,870.5z"/>
			<path class="st1" d="M4819,870.5c0-22.3-0.1-44.6,0-66.9c0-8.2,0.2-8.4,8.3-8.4c20-0.1,40,0,59.9,0c1.3,0,2.7,0,4,0.1
				c2.4,0.3,3.4,1.8,3.4,4.1c0,2.3-0.9,3.9-3.3,4.1c-2.3,0.2-4.7,0.1-7,0.1c-16.6,0-33.3-0.1-49.9,0.1c-6.8,0.1-6.9,0.3-7,7.6
				c-0.1,15.3-0.1,30.6,0,45.9c0,8.3,0.1,8.4,8.2,8.5c16.6,0.1,33.3,0,49.9,0.1c3.7,0,9-1.6,9,4.7c0,6.3-5.3,4.7-9,4.7
				c-16.3,0.1-32.6,0-48.9,0.1c-9.1,0-9.2,0.1-9.2,9.5c-0.1,14.7-0.1,29.3,0,44c0,8.5,0.1,8.6,9,8.6c15.6,0.1,31.3,0,46.9,0
				c1.3,0,2.7-0.1,4,0c3.1,0.2,7.3-1,7.2,4.3c-0.1,5.3-4.3,4.1-7.4,4.1c-20.3,0.1-40.6,0.1-60.9,0c-7.1,0-7.3-0.3-7.3-7.4
				C4819,915.8,4819,893.1,4819,870.5z"/>
			<path class="st1" d="M3973.5,875c0-21.3,0.1-42.6,0-63.9c0-7.2-0.2-7.3-7.2-7.4c-8.3-0.1-16.7-0.1-25,0c-3.4,0-5.9-0.6-5.8-4.8
				c0-4.3,2.8-4.7,6.1-4.7c24.3,0,48.6,0,72.9,0c1,0,2,0.1,3,0.3c2.8,0.6,3.7,2.4,3.7,5.1c-0.1,3-1.8,4-4.5,4c-7.7,0-15.3,0-23,0.1
				c-10.5,0-10.5,0.1-10.5,10.3c0,40,0,79.9,0,119.9c0,2.7,0,5.3-0.1,8c-0.1,2.9-1.9,4-4.6,4c-2.6,0-4.6-0.8-4.7-3.8
				c-0.1-2.3-0.1-4.7-0.1-7C3973.5,915,3973.5,895,3973.5,875z"/>
			<path class="st1" d="M5203.6,874.9c0-21,0-41.9,0-62.9c0-8.2-0.2-8.3-8.3-8.4c-8-0.1-16-0.1-24,0c-3.4,0-5.9-0.7-5.8-4.8
				c0-4.3,2.8-4.6,6.1-4.6c24.3,0,48.6,0,72.9,0c0.3,0,0.7,0,1,0c3.5,0.1,5.7,1.4,5.6,5.4c-0.1,3.8-2.8,4-5.6,4c-7.7,0-15.3,0-23,0
				c-9.4,0.1-9.5,0.1-9.5,9.3c0,40.3,0,80.6,0,120.8c0,2.7,0,5.3-0.1,8c-0.1,2.9-1.8,4-4.6,4c-2.7,0-4.5-0.9-4.6-3.9
				c-0.1-2.3-0.1-4.7-0.1-7C5203.6,914.9,5203.6,894.9,5203.6,874.9z"/>
			<path class="st1" d="M3485.6,875.6c0,19.3,0,38.6,0,57.9c0,2.3,0,4.7,0,7c0,3-0.6,5.3-4.4,5.1c-3.9-0.1-3.9-2.9-3.9-5.6
				c0-2.3,0-4.7,0-7c0-38.6,0-77.2,0-115.8c0-2,0-4,0-6c-0.2-7.5-0.2-7.5-8-7.6c-8-0.1-16,0-24-0.1c-2.6,0-5.5,0.2-5.8-3.7
				c-0.3-4.4,2.7-4.7,5.9-4.7c24,0,47.9,0,71.9,0c1,0,2,0.1,3,0.2c2.5,0.2,3.3,1.8,3.3,4.1c0,2.3-0.9,3.9-3.4,4
				c-7.3,0.1-14.6,0.1-22,0.2c-13.6,0.1-12.6-1.4-12.6,12.1C3485.5,835.6,3485.6,855.6,3485.6,875.6z"/>
			<path class="st1" d="M4303.5,871.6c0,21.9,0.1,43.9-0.1,65.8c0,3.2,1.8,8.2-4.2,8.1c-6-0.1-4.1-5.1-4.1-8.3
				c-0.1-44.5-0.1-89.1,0-133.6c0-3.2-1.8-8.3,4.2-8.2c5.8,0.1,4.1,5.1,4.1,8.3C4303.5,826.3,4303.5,848.9,4303.5,871.6z"/>
		</g>
	</g>
	<g>
		<path class="st4" d="M1785,1089.5c0.2-0.6,0.7-1.3,0.5-1.7c-10.6-23.1-16.6-47.7-24.5-71.7c-4.3-13-9.1-25.7-15.8-37.7
			c-8.1-14.5-18.2-27.3-32.2-36.3c-10-6.4-14.5-15.2-15.9-26.2c-0.8-6.3,0.4-13.8-3.5-18.3c-4.1-4.8-12-2.4-18.1-3
			c-32.2-3-64.3-6.4-96.3-10.7c-47.5-6.4-94.8-14.4-141.4-25.7c-6.8-1.7-11.5-1.2-16.5,4.5c-56.3,64.2-128.3,101.4-210.4,120.8
			c-16.7,4-33.6,7.4-51.7,10.1c3.4-4.4,7.7-5.8,11.3-7.8c36-19.7,66.9-46.1,95.3-75.4c11.2-11.5,20.9-24.2,27.7-38.9
			c4.7-10.1,7.5-20.6,6-31.9c-1.2-9.4-5.1-17-12.6-23c-10.3-8.2-21.6-14.4-34-18.6c-53.2-18-106.8-35.1-160.3-52.3
			c-39.3-12.6-78.4-25.7-118.6-35.1c-51.4-12-103.1-20.3-156.1-21.2c-21.8-0.4-40.5,5.2-57.6,18.2c-7.2,5.5-14.4,10.8-20.6,17.4
			c-7.2,7.6-12.1,16.4-15.1,26.6c-10.9,37.8-24.7,74.5-42.8,109.5c-32.1,62.2-77.7,111.9-137,149c-8.5,5.3-17,10.5-25.6,15.6
			c-1.6,1-3.1,2.8-5.5,1.4c-1-1.5,0.5-2.2,1.2-3c42.1-46.9,69.7-102,90.1-161c19.2-55.6,32.1-112.6,38.3-171.1
			c1.1-10.3,2.8-20.5,9.1-29.2c2-2.7,1.5-4.6-0.7-6.9c-4.1-4.2-6.3-9.5-6.5-15.3c-1-21.6-6.5-42.1-14.2-62
			c-32.2-83.5-79.6-157.2-142.9-220.5c-4.9-4.9-10.4-9.4-15.6-14c0.1-1.2,0.3-2.3,0.4-3.5c60.5,13.1,110.6,44.8,154.1,87.7
			c45,44.5,79.6,96.4,108.3,152.5c3.6,7.1,7,14.4,10.7,21.4c2.2,4.1,4.4,8.3,7.3,11.9c7.5,9.6,16.9,12.6,28.4,8.7
			c17.3-5.9,34.4-12.4,51.7-18.3c5.3-1.8,7.8-5.7,9.8-10.5c2.7-6.4,3.3-13.3,4.9-21.1c4.9,4.4,8.9,8.3,13.1,11.8
			c5.7,4.8,11.6,6.4,19.3,3.4c15.8-6.1,31.9-11.4,48.1-16.6c6.1-2,9.4-5.6,11-11.6c2.3-8.4,3.5-16.9,3.4-25.4c3.1-1.5,3.8,1,5,2.4
			c2.5,2.7,4.9,5.5,7.3,8.2c8.2,9,17.1,12.2,29.1,6.5c11.1-5.3,22.9-8.9,34.6-12.8c5.3-1.7,8.3-4.8,10.3-9.9
			c3.6-9.4,5.8-19.1,7.6-28.9c0.3-1.8-0.4-4,2.1-5.8c3.6,2.1,5.7,6,8.7,8.8c1.7,1.6,3.3,3.3,5,4.9c15.2,14.8,16.9,15.2,36.6,8.2
			c7.8-2.8,15.5-6.1,23.6-8.2c6.9-1.8,10.7-6,13.1-12.3c5.6-14.3,8.8-29.3,11.6-44.3c3.7-0.7,4.4,2.6,5.9,4.4
			c7.8,9.1,15.8,18.1,26,24.7c5.1,3.3,10.3,5.3,16.9,3.2c36.1-11.5,72.6-21.6,109-31c1.7-3-0.6-4.8-1.4-6.8
			c-5.4-13.8-2-26.4,9.9-35.5c4.8-3.7,9.9-6.9,14.5-10.7c27.2-22.4,35.4-50.8,23.9-84.1c-7.5-21.7-19.9-40.6-34.5-58.1
			c-24.9-29.9-53.6-55.7-85-78.4c-2.7-1.9-5.3-4-7.9-6c-0.2-0.1-0.1-0.6-0.1-1.2c2.1-1.7,4.2-0.3,6.2,0.2
			c24.8,7.2,47.6,18.9,69.5,32.3c59.9,36.3,110.3,83.6,154.8,137.3c11.7,14.1,23,28.5,33.4,43.6c3,4.4,6,5.1,9.8,2
			c14.6-11.7,31.6-19.8,46.1-31.6c7.7-6.2,16.5-9.9,25.9-12.3c38.8-10,76.4-23.2,111.8-42c15-8,29.5-16.9,43-27.2
			c48.3-36.4,79.3-82.9,83.7-144.6c1.8-0.5,2.7,0.4,3.5,1.5c33.1,47.2,68.7,92.5,100.9,140.4c10.4,15.5,20.5,31.1,29.3,47.6
			c6,11.2,11.7,22.5,13.7,35.2c0.5,3.4,2.1,4.3,5.2,4.5c92,7.9,176.5,41,259.6,78.4c110.1,49.5,212.8,111.6,307.7,186.4
			c3.9,3.1,7.7,6.2,11.9,9.6c-1.3,3-3.8,4.2-5.8,5.6c-10,7.2-19.4,15.9-30.4,21c-22.1,10.3-38.5,27.9-57.6,42
			c-3.9,2.9-7.9,4.6-12.6,5.4c-55.6,8.9-111.1,17.7-166.7,26.6c-3.6,0.6-7.1,1.4-10.9,2.8c33.8,12.5,68.4,23,101.3,39.4
			c-1.8,1.6-2.9,2.8-4.2,3.7c-60.5,43.6-125.9,77.2-198.1,96.6c-33.9,9.1-68.7,12.8-103.6,15c-33.6,2.1-67.2,2.8-100.7,6.2
			c-7.6,0.8-15.2,1.8-22.8,2.7c-17.9,2.2-31.5,11.8-42.9,25.1c-9.1,10.7-16.3,22.7-22.9,35.1c-10.7,20.3-19.8,41.4-29.4,62.3
			c-10.6,23.2-22.7,45.6-37,66.7C1786.3,1089.5,1785.6,1089.5,1785,1089.5z M549.1,997.7c1.2,0.1,2-0.4,2.6-1.4c1.7-1,3.5-1.8,5.2-3
			c44.6-30.7,80.6-69.5,107.9-116.3c22.9-39.4,39.7-81.3,52.1-125c4.6-16.4,13.5-29.5,26.3-40.3c7.1-6.1,14.8-11.4,22.8-16.2
			c16-9.7,33-17.3,50.3-24.2c38.9-15.6,79.8-23.2,120.5-31.7c62.9-13.2,126.1-24.7,189.8-33.2c29.7-4,59.5-6.8,89.5-8.8
			c41.8-2.8,83.2,1.6,124.7,4.5c60.2,4.2,119.2-1.5,176.6-20c72.4-23.3,146.5-36.8,222.3-40.9c61.3-3.3,121.8,1.1,181,18.2
			c1.8,0.5,4.1,0.3,4.5,1.8c-11.3,0-22.9,0.4-34.5-0.1c-81.1-3.4-161.9-0.6-242.1,12.6c-40.5,6.7-80.3,16.1-118.4,31.6
			c-3.3,1.3-7.2,1.8-9.4,5.2c75.2,38.7,254.4,102.5,303.6,107.9c-0.2-5.7-1.7-11.2-1.1-16.8c3.8-35.1,19.4-63.9,45.7-87.3
			c7.3-6.5,15-11,25.2-7.2c2.4,0.9,5.2,0.8,7.9,1.3c23.6,4.2,47.2,8.3,70.8,12.7c5.1,1,7.9,0,9.3-5.5c2.7-10.3,6.5-20.3,10.7-30.1
			c13.8-32.3,31.6-61.6,62.7-80.4c1.5,0,3,0,4.5-0.1c-12,15.2-22.2,31.5-29.4,49.6c-17.1,42.6-22.6,86.8-17.2,132.2
			c2.4,20.6,7.5,40.6,15.9,59.6c1.2,2.7,1.2,6.8,6.9,7.6c-11.6-40.5-16.4-80.9-6.7-122.1c11.2,1.7,21.4,3.4,31.6,4.9
			c8.2,1.2,8.3,1.1,11.8-6.7c11.9-26.5,26.5-51.5,45.3-73.8c14.2-17,30.5-31.6,50.4-41.9c1.4-0.7,2.6-2.2,5.5-0.1
			c-3.3,4.7-6.3,9.7-9.9,14.2c-12,15.1-24.4,30-36.4,45.1c-14.7,18.6-28.2,38-37.4,59.9c-7.5,17.7-11.9,36-10.4,55.4
			c2.1,26.5,12.9,49.3,30,69.3c0.8,0.7,1,2.8,2.4,1.9c1-0.7,0.4-2.4-0.8-3.3c-0.3-2-0.5-4-1-5.9c-5.5-19.4-7.1-39.3-5.5-59.3
			c1.2-14.1,4.6-27.5,11.6-39.9c2.8-4.9,5.9-6.9,11.9-6.4c18.9,1.6,37.9,2.8,56.8,3.6c33.9,1.3,67.9,2.3,101.8,3.2
			c65.2,1.7,130.4,3.2,195.6,4.8c2,0.1,4,0.1,5.7-1.1c10.3-7.2,20.5-14.3,30.6-21.3c-0.8-1.7-0.9-2.4-1.4-2.8
			c-1.8-1.5-3.6-3-5.4-4.4c-121.9-95.2-255.3-169.9-400.5-223.1c-43.2-15.8-87.2-28.8-132.8-35.5c-11.2-1.7-22.4-3-33.8-3.3
			c-2.5-0.1-5.7,0.7-5.4-3.7c0.6-10.7-3.9-20.1-8.3-29.4c-8.4-17.8-19-34.4-29.8-50.8c-28.8-43.3-60.3-84.6-90.9-126.6
			c-0.2-1.8-1.7-2.6-2.8-3.8c-1.3,1.4-1.3,2.8,0.2,4.1c3.9,29.1-5.1,54.6-22.2,77.6c-14.5,19.5-32.7,35-52.6,48.7
			c-25.9,17.8-53.9,31.7-82.9,43.7c-24.3,10.1-49.1,18.8-74.2,26.6c-15.7,4.8-29.9,12.4-41.6,24.7c3.4,2,5.9,0.8,8.4,0.3
			c56.2-11.3,113-18.5,170.2-21.7c18.6-1,37.2-2,55.9-1.6c4.4,0.1,8.8,1.5,13.2,1c-15.8,2.2-31.9,3.1-47.9,4.6
			c-51,4.8-102,10.1-152.6,18.5c-29.6,4.9-59.1,10.3-87,21.6c-6.9,2.8-11.2,0.2-16-2.5c-2.1-1.2-3.4-4-4.9-6.2
			c-25.4-35.6-53.4-69-84.7-99.6c-34.7-33.9-72.3-64-114.9-87.6c-3.3-2.9-6.9-5.2-12.1-5.6c2.4,3.9,5.4,5.7,8.5,7.3
			c32.8,26.4,58.8,58.5,80.7,94.2c12.5,20.4,23.5,41.7,30.2,64.9c2.2,7.7,3.8,15.5,3.4,23.6c-0.3,6.4-2.5,11.5-8.5,14.7
			c-2.9,1.6-5.6,3.6-8.1,5.8c-5.5,4.8-7.6,10.7-5.6,17.9c0.8,2.9,1.9,5.7,2.6,8.6c1,4,3.1,5,7.3,4.1c13.6-3,27.3-5.7,41-8.2
			c13.7-2.5,27.1-6.5,41.2-7l-0.5,0.5l0.3,0.7c-2.3,0.5-4.6,0.9-6.8,1.5c-31,8.7-62.7,14.7-93.5,24.5c-19.6,6.2-40,10.2-59.8,15.9
			c-147.5,42.3-292.9,91.1-438.3,139.9c-24.9,8.3-49.5,17.6-75.1,23.8c-13,3.2-23.6-0.6-32.4-10.3c-4.1-4.5-6.9-9.8-9.5-15.2
			c-5.4-10.7-10.6-21.5-16.2-32.1c-29-54.4-63.8-104.6-109-147c-30.9-29-65.5-52.4-105.3-67.4c-3.5-1.3-7-3.8-11.4-2.6
			c1.3,3.6,4.2,5.5,6.5,7.8c24.2,24,46.5,49.5,65.1,78.2c37.8,58.5,68.4,120.3,85.5,188.3c2.3,8.9,5.7,17,14.3,21.8
			c4.8,2.7,3.9,6,1,9.9c-6,7.9-8.5,17.1-9.1,27c-0.5,7.6-1.6,15.2-2.8,22.8c-7.4,47.5-20.3,93.6-36.4,138.9
			c-18.1,51-39.1,100.5-72,144.2c-0.5,0.6-1,1.3-1.5,1.9c-0.6,0.3-1.1,0.8-1.4,1.4c-1.9,0.6-2.7,2.3-3.8,3.7l-0.2,0.2l0.2-0.3
			c1.6,0,3.3,0.2,3.9-1.9C548,999.4,548.9,999,549.1,997.7z M2140.7,543.3c-1.1,0.2-1.8,0.8-2.1,1.9c-1.1,0.6-2.4,1.6-1.3,2.6
			c1.6,1.6,2.6-0.3,3.5-1.4c0.5-0.6,1-1.1,1.5-1.7c0.4-0.2,0.7-0.5,0.9-0.9c1.6-0.5,2.3-1.9,3-3.3c0.8-0.9,1.5-1.8,0.7-3
			c0.8,0.3,1.2,0.1,1.2-0.7c-0.2,0-0.5-0.1-0.6,0c-0.2,0.2-0.3,0.5-0.5,0.8c-1.2-0.1-1.9,0.5-2.5,1.5c-0.9,0.2-1.7,0.6-1.7,1.7
			C2142.2,541.6,2141.5,542.4,2140.7,543.3z M2029.7,539.6c1.3-0.8,1.9-2.2,1-3.1c-1.5-1.5-2,0.8-2.8,1.4c-0.4,0.3-0.6,1.1-0.8,1.7
			c-0.4,0.4-0.6,0.9-0.6,1.5c-1.7,1.1-3,2.5-3.4,4.5c-17.1,23-27.6,49.3-35.6,76.5c-2.6,8.9-2.3,8.5-11.6,6.8
			c-27.8-5-55.7-9.9-83.5-15c-6.7-1.3-12.2,0.2-17.4,4.7c-16.2,13.6-27.8,30.4-36.1,49.6c-6,14-9,28.5-8.1,43.8
			c0.3,5.6,3.1,10.7,3,17.1c-13.1-3.3-25.6-6.5-38.1-9.5c-118.9-28.5-235.3-65.1-348.8-110.7c-4.1-1.7-8-2.2-12.5-1.7
			c-34.9,3.9-69.8,4-104.8,1.3c-21.9-1.7-43.8-3.9-65.8-4.5c-62.5-1.6-124.3,7.1-185.8,16.6c-55.3,8.6-110.1,19.5-164.8,31.1
			c-31.9,6.8-63.7,14-94.1,26.1c-2.1,0.9-5.2,0.9-5.9,4.4c1.6,0.2,2.9,0.5,4.2,0.5c55.7-0.1,110,9.4,163.9,22.4
			c38.9,9.4,76.7,22.2,114.7,34.2c76.1,24.1,152.1,48.6,227.2,75.7c45.7,16.5,91.7,31.9,139.4,41.7c44.7,9.2,89.6,16.9,134.9,22.4
			c36,4.4,72,9.1,108.3,9.8c6.6,0.1,13.2,0,20.3,0c-0.3,4.7-0.7,7.9-0.7,11.2c0.1,6.9,1.7,13.4,7,18.1
			c16.3,14.4,25.5,33.1,32.9,52.9c10.9,29.2,16.3,59.6,19.9,90.4c0.5,4,0.2,8.2,3.2,12.4c8.9-12.9,15.6-25.9,21.9-39
			c11.7-24.3,22.8-48.9,34.5-73.1c7.9-16.2,17.1-31.6,29.5-44.9c11-11.8,24-20.2,40-22.8c11.2-1.8,22.4-3.4,33.7-4.1
			c34.2-2.3,68.5-4,102.7-6.2c30.9-2,61.7-5.7,91.7-13.6c68.7-18.1,131.2-49.4,189.2-90c0.8-0.5,1.6-1.1,1.1-3.4
			c-38-16.7-78.2-29-120-42c3.2-0.7,4.5-1.1,5.8-1.3c65.4-10.6,130.8-21.2,196.2-31.7c9-1.4,17.1-3.6,24.2-10.2
			c8.8-8.1,18.6-15.1,27.9-22.7c1.5-1.2,4.5-1.8,3.2-5.8c-12.8,0-25.7,0.3-38.7,0c-57.9-1.4-115.9-2.9-173.8-4.4
			c-41.6-1-83.2-2.6-124.8-5.2c-9-0.6-9.1-0.8-12.8,7.3c-7.1,15.5-9.3,31.9-8.8,48.7c0.7,28.5,8.7,55,22.3,80
			c-0.2,1.2-0.5,2.5-0.7,3.7c-13.9-12.9-27.2-26.3-37.8-42.2c-15.3-23-23.8-48-22.1-76c0.7-10.7,3.4-20.9,5.8-31.2
			c8-20.2,17.7-39.5,30.8-56.9c8.2-10.9,16.8-21.5,25.1-32.4c1.2-1.6,4-2.9,2-5.6c-2.1-0.3-3.1,1-4.3,2.2
			c-25.2,27.2-44.2,58.1-57.3,92.8c-2.1,2.7-4.8,1.5-7.3,1.2c-10.7-1.4-21.5-2.9-32-4.3c-1.8,2.8-2.2,5.4-2.5,8.1
			c-3.7,25.3-2.2,50.3,2.7,75.3c5.8,29.6,17.2,57.1,31.6,83.4c-0.3,1.5-1.1,2.6-2.8,2.6c-19.5-18.7-34.4-40.5-44.2-65.8
			c-16.6-43-19.3-87.4-12.7-132.6c3.2-21.8,9.6-42.8,17.5-63.3c2-1.3,2-3.7,3-5.6C2028.8,541.5,2029.3,540.6,2029.7,539.6z
			 M2035.4,759.6c0.9,2.9,2,5.5,5.3,8.2c-0.1-4.7-1.2-7.6-3.2-10.2c-0.5-1.1-1.1-2.7-2.4-2C2033.3,756.6,2035.1,758.2,2035.4,759.6z
			 M1418.8,854.6c-32-7.8-61.4-17.7-91.1-26.6c6.1,8.8,10.3,17.5,9.9,28.2c-0.4,9.7-4,18.1-9.1,26c-7.5,11.6-17.3,21-27.8,29.8
			c-21.3,17.8-45.1,31.8-69.2,45.5c-10.3,5.8-20.2,12.4-30.3,18.6c0.3,0.7,0.6,1.3,1,2c42.5-9.5,83.3-23.7,121.5-45
			C1359.6,912.9,1390.6,886.8,1418.8,854.6z M1177.9,492.3c-13.9-5.3-22.7-14.1-32.2-22c2.4,10.1,2.2,20,2.4,30.7
			C1157.8,498.2,1166.7,495.6,1177.9,492.3z M1047.4,533.7c5.8-3,12.3-2.7,18-7.2c-7.7-4.2-13.3-9.7-20.4-15.9
			C1045.8,519.2,1046.6,526,1047.4,533.7z M869.4,596.7c-7-1.9-10.5-5.7-15.4-7.8c0,4.5,0,8.3,0,12.5
			C859.1,601.2,863.3,599.6,869.4,596.7z M953.5,567c4.7-1.7,8.5-3,13.2-4.7c-5.5-3.7-9.8-6.5-15.7-10.5
			C953.6,557.5,952.4,561.9,953.5,567z M1260.8,196.5c-0.2-0.2-0.4-0.5-0.6-0.5c-0.2,0-0.5,0.3-0.7,0.4c0.2,0.2,0.4,0.6,0.6,0.6
			C1260.3,197,1260.5,196.7,1260.8,196.5z"/>
		<path class="st0" d="M472.9,340.4c-0.1,1.2-0.3,2.3-0.4,3.5c-1.9-0.4-3.9-1.5-3.4-3.5C469.7,338.5,471.6,339.2,472.9,340.4z"/>
		<path class="st0" d="M1212.2,171.1c-0.4-0.2-0.8-0.4-1.3-0.7c0.2-0.2,0.5-0.6,0.6-0.6c0.5,0.1,0.9,0.4,1.3,0.6
			C1212.7,170.7,1212.5,170.9,1212.2,171.1z"/>
		<path class="st5" d="M2109.9,758.4c-17.1-20.1-27.9-42.9-30-69.3c-1.5-19.3,2.9-37.7,10.4-55.4c9.3-22,22.7-41.4,37.4-59.9
			c12-15.1,24.4-30,36.4-45.1c3.6-4.5,6.7-9.5,9.9-14.2c-2.9-2.1-4.1-0.6-5.5,0.1c-19.8,10.3-36.1,24.9-50.4,41.9
			c-18.7,22.4-33.4,47.3-45.3,73.8c-3.5,7.8-3.6,7.9-11.8,6.7c-10.2-1.5-20.4-3.1-31.6-4.9c-9.7,41.2-4.9,81.6,6.7,122.1
			c-5.7-0.8-5.7-4.9-6.9-7.6c-8.4-19-13.4-39-15.9-59.6c-5.4-45.5,0.1-89.6,17.2-132.2c7.2-18.1,17.4-34.4,29.4-49.6
			c1-0.2,1.1-0.8,1.1-1.6c0.2-0.4,0.5-0.8,0.7-1.2c-0.4,0.2-0.8,0.4-1.3,0.6c-2.1-0.2-3.8,0.5-5,2.3c-31.1,18.8-48.9,48.1-62.7,80.4
			c-4.2,9.8-8,19.8-10.7,30.1c-1.4,5.5-4.2,6.4-9.3,5.5c-23.6-4.4-47.2-8.5-70.8-12.7c-2.6-0.5-5.4-0.4-7.9-1.3
			c-10.3-3.8-17.9,0.7-25.2,7.2c-26.3,23.3-41.9,52.2-45.7,87.3c-0.6,5.6,0.9,11.1,1.1,16.8c-49.2-5.4-228.4-69.2-303.6-107.9
			c2.3-3.3,6.1-3.8,9.4-5.2c38.1-15.5,78-25,118.4-31.6c80.2-13.2,161-16,242.1-12.6c11.6,0.5,23.2,0.1,34.5,0.1
			c-0.4-1.5-2.7-1.3-4.5-1.8c-59.2-17.1-119.8-21.5-181-18.2c-75.9,4.1-149.9,17.6-222.3,40.9c-57.4,18.5-116.4,24.2-176.6,20
			c-41.5-2.9-83-7.3-124.7-4.5c-29.9,2-59.8,4.8-89.5,8.8c-63.7,8.5-126.9,20.1-189.8,33.2c-40.7,8.5-81.7,16.1-120.5,31.7
			c-17.3,7-34.3,14.6-50.3,24.2c-8,4.8-15.6,10.2-22.8,16.2c-12.7,10.8-21.6,23.9-26.3,40.3c-12.4,43.7-29.2,85.7-52.1,125
			c-27.3,46.8-63.3,85.6-107.9,116.3c-1.6,1.1-3.4,2-5.2,3c-0.7-0.6-1.4-1.2-2.1-1.8c32.8-43.6,53.9-93.2,72-144.2
			c16-45.3,29-91.3,36.4-138.9c1.2-7.6,2.3-15.2,2.8-22.8c0.6-9.9,3.1-19.1,9.1-27c2.9-3.8,3.8-7.2-1-9.9
			c-8.6-4.8-12.1-12.9-14.3-21.8C637.4,562,606.8,500.2,569,441.7c-18.5-28.7-40.9-54.2-65.1-78.2c-2.3-2.3-5.2-4.2-6.5-7.8
			c4.4-1.1,7.9,1.3,11.4,2.6c39.8,15,74.4,38.4,105.3,67.4c45.2,42.4,80,92.6,109,147c5.6,10.6,10.8,21.4,16.2,32.1
			c2.7,5.4,5.5,10.7,9.5,15.2c8.8,9.7,19.4,13.4,32.4,10.3c25.6-6.2,50.2-15.5,75.1-23.8c145.4-48.7,290.8-97.6,438.3-139.9
			c19.8-5.7,40.2-9.6,59.8-15.9c30.8-9.8,62.4-15.8,93.5-24.5c2.2-0.6,4.5-1,6.8-1.5c3.2,0,6.2-0.2,8.2-3.3c0.7-0.3,1.5-0.5,2.2-0.8
			c-0.2-0.1-0.6-0.3-0.7-0.3c-0.5,0.3-1,0.7-1.5,1.1c-2.8,0.2-6.1-1.5-8,2.1c-14,0.5-27.5,4.5-41.2,7c-13.7,2.5-27.4,5.2-41,8.2
			c-4.1,0.9-6.2-0.1-7.3-4.1c-0.7-2.9-1.8-5.7-2.6-8.6c-2.1-7.2,0.1-13.1,5.6-17.9c2.5-2.2,5.2-4.2,8.1-5.8
			c5.9-3.2,8.2-8.3,8.5-14.7c0.4-8.1-1.2-15.8-3.4-23.6c-6.7-23.2-17.6-44.4-30.2-64.9c-21.9-35.7-47.9-67.8-80.7-94.2
			c0.7-1.6,2.2-1.5,3.6-1.7c42.6,23.5,80.2,53.7,114.9,87.6c31.3,30.6,59.3,64,84.7,99.6c1.5,2.2,2.8,5,4.9,6.2
			c4.8,2.7,9.1,5.3,16,2.5c27.9-11.2,57.5-16.7,87-21.6c50.6-8.4,101.6-13.7,152.6-18.5c16-1.5,32.1-2.5,47.9-4.6
			c-4.4,0.5-8.7-0.9-13.2-1c-18.7-0.3-37.3,0.6-55.9,1.6c-57.3,3.2-114,10.4-170.2,21.7c-2.4,0.5-5,1.7-8.4-0.3
			c11.8-12.3,25.9-19.9,41.6-24.7c25.1-7.8,49.9-16.4,74.2-26.6c28.9-12.1,56.9-26,82.9-43.7c19.9-13.6,38.1-29.2,52.6-48.7
			c17.1-23.1,26.1-48.5,22.2-77.6c0.9-0.1,1.7-0.2,2.6-0.3c30.6,42,62.2,83.3,90.9,126.6c10.9,16.4,21.5,32.9,29.8,50.8
			c4.4,9.3,8.9,18.7,8.3,29.4c-0.3,4.4,2.9,3.6,5.4,3.7c11.3,0.3,22.6,1.6,33.8,3.3c45.6,6.8,89.7,19.7,132.8,35.5
			c145.2,53.3,278.6,128,400.5,223.1c1.8,1.4,3.7,2.9,5.4,4.4c0.4,0.4,0.6,1.1,1.4,2.8c-10.1,7-20.4,14.2-30.6,21.3
			c-1.8,1.2-3.7,1.2-5.7,1.1c-65.2-1.6-130.4-3.1-195.6-4.8c-34-0.9-67.9-1.9-101.8-3.2c-19-0.7-37.9-1.9-56.8-3.6
			c-6-0.5-9.2,1.5-11.9,6.4c-7.1,12.4-10.5,25.9-11.6,39.9c-1.7,20.1,0,39.9,5.5,59.3c0.5,1.9,0.7,3.9,1,5.9
			C2111,757.4,2110.5,757.9,2109.9,758.4z M2379.2,618c0.9,1.7,2.1,2.2,3.8,1.2c-1.1-3-3.8-4.5-6.1-6.4
			c-32.5-26.5-65.1-53-97.7-79.4c-1.2-1-2.2-2.6-5.1-1.3c-1.8,6.8-3.7,14.1-5.6,21.5c-3.6,13.6-3.6,13.6,8.2,19.7
			c0.6,0.3,1,0.8,1.4,1.2c-12.7,24.9-7.1,47.7,14.1,58.4c22.6,11.5,43.9,1.5,57.8-27.5C2359.8,609.6,2369.5,613.8,2379.2,618z
			 M2385.8,620.8l0.4-0.4l-0.5-0.1L2385.8,620.8z"/>
		<path class="st6" d="M2025.4,548.1c-7.9,20.5-14.3,41.5-17.5,63.3c-6.5,45.2-3.9,89.6,12.7,132.6c9.8,25.3,24.7,47,44.2,65.8
			c1.1,2.9,3.2,4.7,5.8,6.1c0.5,0.4,1.2,1.3,1.3,1.2c1.2-0.8,0.5-1.6-0.1-2.4c-0.5-3-1.8-5.6-4.2-7.5
			c-14.4-26.3-25.8-53.8-31.6-83.4c-4.9-25-6.4-50-2.7-75.3c0.4-2.6,0.7-5.3,2.5-8.1c10.5,1.4,21.2,2.9,32,4.3
			c2.5,0.3,5.3,1.6,7.3-1.2c1.2,0,2.4-0.1,3.7-0.1c-2.4,10.3-5.2,20.5-5.8,31.2c-1.7,28,6.8,53,22.1,76
			c10.6,15.9,23.9,29.3,37.8,42.2c0.2,1.5,1.4,2.5,2.6,2.2c2.1-0.5,0.7-1.9,0.3-2.9c-0.4-1.2-0.8-2.5-2.3-2.9
			c-13.5-25-21.5-51.5-22.3-80c-0.4-16.8,1.7-33.2,8.8-48.7c3.7-8,3.8-7.8,12.8-7.3c41.6,2.6,83.2,4.2,124.8,5.2
			c57.9,1.5,115.9,3,173.8,4.4c12.9,0.3,25.9,0,38.7,0c1.3,4-1.7,4.6-3.2,5.8c-9.3,7.6-19.1,14.6-27.9,22.7
			c-7.1,6.5-15.2,8.7-24.2,10.2c-65.4,10.4-130.8,21.1-196.2,31.7c-1.3,0.2-2.6,0.6-5.8,1.3c41.8,12.9,82,25.3,120,42
			c0.5,2.3-0.4,2.9-1.1,3.4c-58,40.6-120.5,71.9-189.2,90c-30.1,7.9-60.8,11.6-91.7,13.6c-34.2,2.2-68.5,3.9-102.7,6.2
			c-11.3,0.8-22.5,2.3-33.7,4.1c-16.1,2.6-29.1,11.1-40,22.8c-12.4,13.3-21.7,28.7-29.5,44.9c-11.7,24.3-22.9,48.8-34.5,73.1
			c-6.3,13.2-13,26.2-21.9,39c-3-4.1-2.8-8.4-3.2-12.4c-3.6-30.8-9.1-61.2-19.9-90.4c-7.4-19.8-16.6-38.5-32.9-52.9
			c-5.3-4.7-7-11.2-7-18.1c0-3.2,0.4-6.5,0.7-11.2c-7,0-13.6,0.1-20.3,0c-36.3-0.6-72.3-5.4-108.3-9.8
			c-45.3-5.5-90.2-13.2-134.9-22.4c-47.7-9.8-93.7-25.2-139.4-41.7c-75.1-27.1-151.1-51.6-227.2-75.7
			c-38.1-12.1-75.9-24.9-114.7-34.2c-53.9-13-108.2-22.5-163.9-22.4c-1.3,0-2.6-0.3-4.2-0.5c0.8-3.5,3.8-3.5,5.9-4.4
			c30.4-12.2,62.2-19.4,94.1-26.1c54.7-11.6,109.5-22.5,164.8-31.1c61.6-9.6,123.3-18.2,185.8-16.6c22,0.6,43.9,2.8,65.8,4.5
			c35,2.7,69.9,2.6,104.8-1.3c4.5-0.5,8.4,0.1,12.5,1.7c113.5,45.6,229.9,82.2,348.8,110.7c12.5,3,25,6.2,38.1,9.5
			c0.1-6.4-2.7-11.5-3-17.1c-0.9-15.3,2-29.8,8.1-43.8c8.3-19.2,19.9-36,36.1-49.6c5.3-4.4,10.7-5.9,17.4-4.7
			c27.8,5.2,55.7,10.1,83.5,15c9.3,1.7,9,2.1,11.6-6.8c8-27.2,18.5-53.4,35.6-76.5C2023.8,546.4,2024.6,547.3,2025.4,548.1z"/>
		<path class="st7" d="M1418.8,854.6c-28.2,32.2-59.2,58.4-95.3,78.4c-38.2,21.3-79,35.6-121.5,45c-0.3-0.7-0.6-1.3-1-2
			c10.1-6.2,20-12.8,30.3-18.6c24.1-13.6,47.9-27.6,69.2-45.5c10.5-8.8,20.4-18.2,27.8-29.8c5.1-7.9,8.8-16.3,9.1-26
			c0.4-10.7-3.8-19.4-9.9-28.2C1357.4,836.9,1386.8,846.8,1418.8,854.6z"/>
		<path class="st8" d="M2078.8,643.5c-1.2,0-2.4,0.1-3.7,0.1c13.1-34.6,32.1-65.6,57.3-92.8c1.1-1.2,2.2-2.5,4.3-2.2
			c2,2.7-0.8,4.1-2,5.6c-8.3,10.8-16.9,21.4-25.1,32.4C2096.5,604,2086.8,623.3,2078.8,643.5z"/>
		<path class="st7" d="M1177.9,492.3c-11.3,3.3-20.1,5.9-29.8,8.8c-0.2-10.7,0-20.6-2.4-30.7C1155.2,478.2,1164,487,1177.9,492.3z"
			/>
		<path class="st7" d="M1047.4,533.7c-0.8-7.7-1.5-14.5-2.4-23.1c7.2,6.1,12.8,11.7,20.4,15.9C1059.7,531,1053.2,530.7,1047.4,533.7
			z"/>
		<path class="st7" d="M869.4,596.7c-6.2,2.9-10.3,4.6-15.4,4.6c0-4.2,0-8,0-12.5C858.9,591,862.4,594.8,869.4,596.7z"/>
		<path class="st7" d="M953.5,567c-1.1-5.1,0.1-9.5-2.4-15.2c5.9,3.9,10.2,6.8,15.7,10.5C961.9,564,958.2,565.4,953.5,567z"/>
		<path class="st0" d="M1274.4,203.4c-1.4,0.2-2.9,0.1-3.6,1.7c-3.2-1.6-6.1-3.4-8.5-7.3C1267.6,198.2,1271.1,200.5,1274.4,203.4z"
			/>
		<path class="st0" d="M2037.6,757.5c2,2.6,3.1,5.6,3.2,10.2c-3.3-2.6-4.4-5.3-5.3-8.2C2036.2,758.9,2036.9,758.2,2037.6,757.5z"/>
		<path class="st0" d="M2067.6,807.1c2.4,1.9,3.7,4.5,4.2,7.5c-0.4,0.4-0.8,0.8-1.2,1.2c-2.6-1.4-4.8-3.2-5.8-6.1
			C2066.6,809.8,2067.3,808.7,2067.6,807.1z"/>
		<path class="st0" d="M1455,423.6c1.9-3.6,5.2-1.9,8-2.1l0-0.1c-1.9,3.1-5,3.3-8.2,3.3c0,0-0.3-0.7-0.3-0.7L1455,423.6z"/>
		<path class="st0" d="M2133.5,789.2c1.4,0.4,1.8,1.7,2.3,2.9c0.4,1,1.7,2.5-0.3,2.9c-1.3,0.3-2.4-0.7-2.6-2.2
			C2133,791.6,2133.3,790.4,2133.5,789.2z"/>
		<path class="st0" d="M1810.8,155c-0.9,0.1-1.7,0.2-2.6,0.3c-1.5-1.3-1.6-2.7-0.2-4.1C1809.2,152.4,1810.7,153.2,1810.8,155z"/>
		<path class="st8" d="M2025.4,548.1c-0.8-0.8-1.5-1.7-2.3-2.5c0.4-2.1,1.6-3.5,3.4-4.5c0.6,0.5,1.3,1,1.9,1.5
			C2027.4,544.4,2027.4,546.8,2025.4,548.1z"/>
		<path class="st0" d="M2061.1,503.6c0,0.8-0.1,1.5-1.1,1.6c-1.5,0-3,0-4.5,0.1c1.2-1.8,2.9-2.5,5-2.3L2061.1,503.6z"/>
		<path class="st0" d="M2027,539.5c0.3-0.6,0.4-1.3,0.8-1.7c0.9-0.7,1.3-2.9,2.8-1.4c0.9,0.9,0.3,2.4-1,3.1
			C2028.8,539.6,2027.9,539.6,2027,539.5z"/>
		<path class="st0" d="M546.8,999.5c-0.6,2.1-2.3,1.9-3.9,1.9l0,0.1c1.1-1.4,1.9-3.1,3.8-3.7C547,998.3,547,998.9,546.8,999.5z"/>
		<path class="st5" d="M2037.6,757.5c-0.7,0.7-1.4,1.4-2.1,2.1c-0.3-1.4-2.1-2.9-0.2-4C2036.5,754.8,2037.1,756.4,2037.6,757.5z"/>
		<path class="st5" d="M2111.5,757c1.2,0.9,1.7,2.6,0.8,3.3c-1.4,1-1.6-1.1-2.4-1.9C2110.5,757.9,2111,757.4,2111.5,757z"/>
		<path class="st0" d="M2142.9,540.8c0-1.1,0.7-1.5,1.7-1.7c0.6,0.5,1.1,0.9,1.7,1.4c-0.7,1.3-1.4,2.8-3,3.3
			C2143.1,542.8,2143,541.8,2142.9,540.8z"/>
		<path class="st8" d="M2140.8,546.4c-0.9,1.1-1.8,3-3.5,1.4c-1.1-1.1,0.2-2,1.3-2.6C2139.3,545.6,2140.1,546,2140.8,546.4z"/>
		<path class="st8" d="M2027,539.5c0.9,0,1.8,0,2.7,0c-0.5,1-0.9,2-1.4,2.9c-0.6-0.5-1.3-1-1.9-1.5
			C2026.4,540.4,2026.6,539.9,2027,539.5z"/>
		<path class="st0" d="M2144.5,539.1c0.5-1,1.3-1.6,2.5-1.5l-0.1-0.2c0.8,1.2,0.1,2.2-0.7,3.1C2145.7,540,2145.1,539.5,2144.5,539.1
			z"/>
		<path class="st0" d="M2147,537.6c0.2-0.3,0.3-0.6,0.5-0.8c0.1-0.1,0.4,0,0.6,0c0,0.8-0.4,1-1.2,0.7
			C2146.9,537.4,2147,537.6,2147,537.6z"/>
		<path class="st0" d="M1260.8,196.5c-0.3,0.2-0.5,0.5-0.8,0.5c-0.2,0-0.4-0.4-0.6-0.6c0.2-0.2,0.5-0.5,0.7-0.4
			C1260.4,196,1260.6,196.3,1260.8,196.5z"/>
		<path class="st8" d="M2138.6,545.1c0.3-1.1,1-1.7,2.1-1.9c0.5,0.5,1.1,1,1.6,1.4c-0.5,0.6-1,1.1-1.5,1.7
			C2140.1,546,2139.3,545.6,2138.6,545.1z"/>
		<path class="st8" d="M2142.9,540.8c0.1,1,0.2,2,0.3,3c-0.1,0.4-0.4,0.8-0.9,0.9c-0.5-0.5-1.1-1-1.6-1.4
			C2141.5,542.4,2142.2,541.6,2142.9,540.8z"/>
		<path class="st5" d="M551.7,996.2c-0.6,1-1.4,1.5-2.6,1.4c-0.3-0.4-0.7-0.9-1-1.3c0.5-0.6,1-1.3,1.5-1.9
			C550.3,995.1,551,995.6,551.7,996.2z"/>
		<path class="st5" d="M546.8,999.5c0.2-0.6,0.2-1.2-0.1-1.7c0.3-0.6,0.7-1.1,1.4-1.4c0.3,0.4,0.7,0.9,1,1.3
			C548.9,999,548,999.4,546.8,999.5z"/>
		<path class="st0" d="M542.9,1001.4l-0.2,0.3C542.7,1001.7,542.9,1001.5,542.9,1001.4C542.9,1001.5,542.9,1001.4,542.9,1001.4z"/>
		<path class="st3" d="M2379.2,618c-9.7-4.2-19.4-8.4-29.1-12.7c-13.9,29-35.2,39-57.8,27.5c-21.2-10.8-26.8-33.6-14.1-58.4
			c-0.4-0.4-0.9-0.9-1.4-1.2c-11.8-6.1-11.8-6.1-8.2-19.7c1.9-7.3,3.9-14.7,5.6-21.5c2.8-1.3,3.9,0.3,5.1,1.3
			c32.6,26.4,65.1,52.9,97.7,79.4c2.3,1.9,5,3.4,6.1,6.4C2381.7,618.8,2380.5,618.4,2379.2,618z"/>
		<path class="st0" d="M1463,421.5c0.5-0.4,0.9-0.8,1.5-1.1c0.1-0.1,0.5,0.2,0.7,0.3C1464.4,420.9,1463.7,421.2,1463,421.5
			C1462.9,421.5,1463,421.5,1463,421.5z"/>
		<path class="st0" d="M2379.2,618c1.3,0.4,2.6,0.8,3.8,1.2C2381.3,620.2,2380.1,619.7,2379.2,618z"/>
		<path class="st0" d="M2060.5,503c0.4-0.2,0.8-0.4,1.3-0.6c-0.2,0.4-0.5,0.8-0.7,1.2C2061.1,503.6,2060.5,503,2060.5,503z"/>
		<polygon class="st0" points="2385.8,620.8 2385.6,620.3 2386.1,620.4 		"/>
		<path class="st0" d="M2071.8,814.7c0.7,0.8,1.3,1.6,0.1,2.4c-0.1,0.1-0.9-0.8-1.3-1.2C2071,815.4,2071.4,815.1,2071.8,814.7z"/>
	</g>
</g>
</svg>
